# xmcd
#
# Track frame offsets:
#	150
#	14998
#	30891
#	46222
#	62326
#	81443
#	93837
#	110272
#	125425
#	138629
#	155605
#
# Disc length: 2210 seconds
#
# Revision: 1
# Processed by: cddbd v1.5.1PL0 Copyright (c) Steve Scherf et al.
# Submitted via: dBpowerAMP V4.0
#
DISCID=8908a00b
DTITLE=Ken Holloway - Better Man
DYEAR=2001
DGENRE=Country
TTITLE0=Can't Take It With You When You Go
TTITLE1=I Met A Friend Of Yours
TTITLE2=Heaven In Her
TTITLE3=How Do I Forgive Myself
TTITLE4=You Make Me Want To Be A Better Man
TTITLE5=Undo The Voodoo
TTITLE6=Love Deep, Live Loud
TTITLE7=You're Not Gonna Need Me
TTITLE8=Head Over Heels
TTITLE9=The Bottle
TTITLE10=Walk Through This World With Me
EXTD=
EXTT0=
EXTT1=
EXTT2=
EXTT3=
EXTT4=
EXTT5=
EXTT6=
EXTT7=
EXTT8=
EXTT9=
EXTT10=
PLAYORDER=
